<?xml version="1.0" encoding="utf-8"?>
<!-- Svg Vector Icons : http://www.onlinewebfonts.com/icon -->
<!DOCTYPE svg PUBLIC "-//W3C//DTD SVG 1.1//EN" "http://www.w3.org/Graphics/SVG/1.1/DTD/svg11.dtd">
<svg version="1.1" xmlns="http://www.w3.org/2000/svg" xmlns:xlink="http://www.w3.org/1999/xlink" x="0px" y="0px" viewBox="0 0 1000 1000" enable-background="new 0 0 1000 1000" xml:space="preserve">
<metadata> Svg Vector Icons : http://www.onlinewebfonts.com/icon </metadata>
<g><g><g id="c122_arrow"><path d="M990,500C990,229.4,770.7,10,500,10C229.4,10,10,229.4,10,500c0,270.7,219.4,490,490,490C770.7,990,990,770.7,990,500z M489.6,811.6L205.5,366.7c-1.9-2.4-2.9-5.3-2.9-8.3l1.3-5.9c2.2-4.6,6.9-7.6,12-7.6h568.2c5.1,0,9.8,3,12,7.6c2.3,4.7,1.7,10.2-1.4,14.1L510.6,811.6c-2.6,3.2-6.4,5.2-10.5,5.2C496,816.9,492.2,814.9,489.6,811.6z"/></g></g><g></g><g></g><g></g><g></g><g></g><g></g><g></g><g></g><g></g><g></g><g></g><g></g><g></g><g></g><g></g></g>
</svg>