<svg width="149" height="187" viewBox="0 0 149 187" fill="none" xmlns="http://www.w3.org/2000/svg">
<path d="M116.293 15.5833V11.6875C116.293 10.6543 115.91 9.66334 115.228 8.93273C114.547 8.20212 113.622 7.79167 112.659 7.79167H10.9024C9.9386 7.79167 9.01424 8.20212 8.33271 8.93273C7.65118 9.66334 7.26829 10.6543 7.26829 11.6875V175.312C7.26829 176.346 7.65118 177.337 8.33271 178.067C9.01424 178.798 9.9386 179.208 10.9024 179.208H36.3415C36.48 180.806 36.9707 182.346 37.7732 183.7C38.5756 185.055 39.6668 186.186 40.9568 187H10.9024C8.01093 187 5.23785 185.769 3.19325 183.577C1.14865 181.385 0 178.412 0 175.312L0 11.6875C0 8.58778 1.14865 5.61502 3.19325 3.42319C5.23785 1.23136 8.01093 0 10.9024 0H112.659C115.55 0 118.323 1.23136 120.368 3.42319C122.412 5.61502 123.561 8.58778 123.561 11.6875V15.5833H116.293ZM138.098 19.4792C140.989 19.4792 143.762 20.7105 145.807 22.9024C147.851 25.0942 149 28.0669 149 31.1667V175.312C149 178.412 147.851 181.385 145.807 183.577C143.762 185.769 140.989 187 138.098 187H50.8781C47.9865 187 45.2135 185.769 43.1689 183.577C41.1243 181.385 39.9756 178.412 39.9756 175.312V31.1667C39.9756 28.0669 41.1243 25.0942 43.1689 22.9024C45.2135 20.7105 47.9865 19.4792 50.8781 19.4792H138.098ZM141.732 31.1667C141.732 30.1334 141.349 29.1425 140.667 28.4119C139.986 27.6813 139.061 27.2708 138.098 27.2708H50.8781C49.9142 27.2708 48.9899 27.6813 48.3083 28.4119C47.6268 29.1425 47.2439 30.1334 47.2439 31.1667V175.312C47.2439 176.346 47.6268 177.337 48.3083 178.067C48.9899 178.798 49.9142 179.208 50.8781 179.208H138.098C139.061 179.208 139.986 178.798 140.667 178.067C141.349 177.337 141.732 176.346 141.732 175.312V31.1667Z" fill="black"/>
</svg>
