<svg width="141" height="177" viewBox="0 0 141 177" fill="none" xmlns="http://www.w3.org/2000/svg">
<path d="M126.9 0C130.64 0 134.226 1.30103 136.87 3.61689C139.514 5.93275 141 9.07372 141 12.3488V164.651C141 167.926 139.514 171.067 136.87 173.383C134.226 175.699 130.64 177 126.9 177H14.1C10.3604 177 6.77406 175.699 4.12979 173.383C1.48553 171.067 0 167.926 0 164.651L0 12.3488C0 9.07372 1.48553 5.93275 4.12979 3.61689C6.77406 1.30103 10.3604 0 14.1 0H126.9ZM131.6 12.3488C131.642 11.7989 131.548 11.2475 131.327 10.7316C131.105 10.2157 130.761 9.74715 130.316 9.35741C129.871 8.96767 129.336 8.6657 128.747 8.47171C128.158 8.27771 127.528 8.19617 126.9 8.23256H14.1C13.472 8.19617 12.8424 8.27771 12.2534 8.47171C11.6643 8.6657 11.1294 8.96767 10.6844 9.35741C10.2394 9.74715 9.89456 10.2157 9.67306 10.7316C9.45155 11.2475 9.35846 11.7989 9.4 12.3488V164.651C9.35846 165.201 9.45155 165.753 9.67306 166.268C9.89456 166.784 10.2394 167.253 10.6844 167.643C11.1294 168.032 11.6643 168.334 12.2534 168.528C12.8424 168.722 13.472 168.804 14.1 168.767H126.9C127.528 168.804 128.158 168.722 128.747 168.528C129.336 168.334 129.871 168.032 130.316 167.643C130.761 167.253 131.105 166.784 131.327 166.268C131.548 165.753 131.642 165.201 131.6 164.651V12.3488Z" fill="black"/>
</svg>
