<svg width="130" height="177" viewBox="0 0 130 177" fill="none" xmlns="http://www.w3.org/2000/svg">
<path d="M124.316 0H5.89325C4.27289 0.153645 2.77106 0.875731 1.68127 2.02514C0.591472 3.17456 -0.00797244 4.66869 8.00879e-05 6.21556V171.566C0.0113764 172.29 0.172778 173.005 0.475068 173.671C0.777357 174.336 1.21461 174.938 1.76186 175.442C2.30911 175.947 2.95563 176.344 3.6645 176.611C4.37337 176.878 5.13071 177.01 5.89325 176.999H124.32C125.06 177.005 125.793 176.872 126.479 176.608C127.165 176.344 127.789 175.954 128.316 175.461C128.843 174.968 129.263 174.381 129.551 173.734C129.84 173.087 129.991 172.392 129.997 171.689C129.997 171.648 129.997 171.607 129.997 171.566V6.21556C130.05 4.68987 129.494 3.20151 128.44 2.04881C127.387 0.896117 125.913 0.164281 124.316 0ZM64.9983 5.8451C65.5639 5.8451 66.1169 6.00443 66.5872 6.30295C67.0575 6.60147 67.4241 7.02576 67.6405 7.52218C67.857 8.0186 67.9136 8.56484 67.8033 9.09184C67.6929 9.61883 67.4205 10.1029 67.0206 10.4829C66.6206 10.8628 66.111 11.1215 65.5562 11.2264C65.0015 11.3312 64.4264 11.2774 63.9039 11.0718C63.3813 10.8661 62.9346 10.5179 62.6204 10.0712C62.3061 9.6244 62.1384 9.09915 62.1384 8.56183C62.1384 7.84131 62.4397 7.1503 62.976 6.64081C63.5124 6.13132 64.2398 5.8451 64.9983 5.8451ZM64.9983 172.677C64.0813 172.677 63.1848 172.419 62.4224 171.935C61.6599 171.451 61.0656 170.763 60.7147 169.958C60.3638 169.154 60.2719 168.268 60.4508 167.414C60.6298 166.559 61.0713 165.774 61.7198 165.158C62.3682 164.543 63.1944 164.123 64.0938 163.953C64.9932 163.783 65.9254 163.87 66.7726 164.204C67.6198 164.537 68.344 165.102 68.8534 165.826C69.3629 166.55 69.6348 167.402 69.6348 168.273C69.6234 169.434 69.1299 170.544 68.2616 171.361C67.3933 172.178 66.2205 172.636 64.9983 172.636V172.677ZM121.33 160.534H8.66651V16.4651H121.33V160.534Z" fill="black"/>
</svg>
