<svg width="103" height="145" viewBox="0 0 103 145" fill="none" xmlns="http://www.w3.org/2000/svg">
<path fill-rule="evenodd" clip-rule="evenodd" d="M10.3 0C4.61127 0 0 4.52927 0 10.1162V134.883C0 140.471 4.61127 145 10.3 145H92.7C98.3887 145 103 140.471 103 134.884V10.1162C103 4.52927 98.3887 0 92.7 0H10.3ZM94.0435 132.945C94.0435 134.749 92.5782 136.212 90.7708 136.212H12.2292C10.4218 136.212 8.95652 134.749 8.95652 132.945V12.0552C8.95652 10.2506 10.4218 8.78788 12.2292 8.78788H90.7712C92.5782 8.78788 94.0435 10.2506 94.0435 12.0552V132.945Z" fill="black"/>
</svg>
