<svg width="95" height="187" viewBox="0 0 95 187" fill="none" xmlns="http://www.w3.org/2000/svg">
<path d="M81.2248 0H13.7752C11.9569 0.00554852 10.1576 0.36367 8.48049 1.05384C6.80334 1.744 5.28129 2.75264 4.00161 4.02193C2.72192 5.29123 1.70975 6.79622 1.02312 8.45064C0.336489 10.1051 -0.0111027 11.8764 0.000270327 13.663V173.249C0.0343311 176.821 1.49927 180.236 4.07767 182.753C6.65606 185.271 10.1402 186.689 13.7752 186.7H81.2248C84.8598 186.689 88.3439 185.271 90.9223 182.753C93.5007 180.236 94.9657 176.821 94.9997 173.249V13.663C95.0111 11.8764 94.6635 10.1051 93.9769 8.45064C93.2903 6.79622 92.2781 5.29123 90.9984 4.02193C89.7187 2.75264 88.1967 1.744 86.5195 1.05384C84.8424 0.36367 83.0431 0.00554852 81.2248 0ZM56.4818 4.96452C56.7636 4.96452 57.0391 5.04665 57.2734 5.20051C57.5078 5.35437 57.6904 5.57306 57.7983 5.82892C57.9061 6.08478 57.9344 6.36633 57.8794 6.63795C57.8244 6.90957 57.6887 7.15907 57.4894 7.3549C57.2901 7.55073 57.0362 7.68409 56.7598 7.73812C56.4833 7.79215 56.1968 7.76442 55.9364 7.65843C55.6761 7.55245 55.4535 7.37298 55.2969 7.14271C55.1404 6.91244 55.0568 6.64172 55.0568 6.36477C55.0568 5.9934 55.2069 5.63725 55.4741 5.37465C55.7414 5.11205 56.1038 4.96452 56.4818 4.96452ZM43.1818 5.30398H51.8182C52.1045 5.30398 52.3791 5.41574 52.5815 5.61468C52.784 5.81361 52.8977 6.08343 52.8977 6.36477C52.8977 6.64611 52.784 6.91593 52.5815 7.11487C52.3791 7.31381 52.1045 7.42557 51.8182 7.42557H43.1818C42.8955 7.42557 42.6209 7.31381 42.4185 7.11487C42.216 6.91593 42.1023 6.64611 42.1023 6.36477C42.1023 6.08343 42.216 5.81361 42.4185 5.61468C42.6209 5.41574 42.8955 5.30398 43.1818 5.30398ZM90.6816 173.249C90.6588 175.699 89.6524 178.041 87.8814 179.765C86.1104 181.49 83.718 182.457 81.2248 182.457H13.7752C11.282 182.457 8.88962 181.49 7.1186 179.765C5.34757 178.041 4.3412 175.699 4.31843 173.249V13.663C4.30127 12.4321 4.5332 11.21 5.00076 10.0678C5.46831 8.92567 6.16217 7.88619 7.04203 7.00976C7.92188 6.13334 8.9702 5.43745 10.1261 4.96251C11.2819 4.48758 12.5223 4.24307 13.7752 4.24318H23.7501C24.3228 4.24318 24.8719 4.46671 25.2768 4.86458C25.6817 5.26246 25.9092 5.80209 25.9092 6.36477V8.48636C25.9092 9.61172 26.3642 10.691 27.174 11.4867C27.9838 12.2825 29.0821 12.7295 30.2274 12.7295H64.7726C65.9179 12.7295 67.0162 12.2825 67.826 11.4867C68.6358 10.691 69.0908 9.61172 69.0908 8.48636V6.36477C69.0908 5.80209 69.3183 5.26246 69.7232 4.86458C70.1281 4.46671 70.6772 4.24318 71.2499 4.24318H81.2248C82.4777 4.24307 83.7181 4.48758 84.8739 4.96251C86.0298 5.43745 87.0781 6.13334 87.958 7.00976C88.8378 7.88619 89.5317 8.92567 89.9992 10.0678C90.4668 11.21 90.6987 12.4321 90.6816 13.663V173.249Z" fill="#1D1D1F"/>
</svg>
