<svg width="95" height="187" viewBox="0 0 95 187" fill="none" xmlns="http://www.w3.org/2000/svg">
<path d="M80 0H15C11.0254 0.0110989 7.21699 1.49229 4.40651 4.12009C1.59603 6.74788 0.0118705 10.3088 0 14.025L0 172.975C0.0118705 176.691 1.59603 180.252 4.40651 182.88C7.21699 185.508 11.0254 186.989 15 187H80C83.9746 186.989 87.783 185.508 90.5935 182.88C93.404 180.252 94.9881 176.691 95 172.975V14.025C94.9881 10.3088 93.404 6.74788 90.5935 4.12009C87.783 1.49229 83.9746 0.0110989 80 0ZM36.25 10.5188H58.75C59.0815 10.5188 59.3995 10.6419 59.6339 10.8611C59.8683 11.0803 60 11.3775 60 11.6875C60 11.9975 59.8683 12.2947 59.6339 12.5139C59.3995 12.7331 59.0815 12.8563 58.75 12.8563H36.25C35.9185 12.8563 35.6005 12.7331 35.3661 12.5139C35.1317 12.2947 35 11.9975 35 11.6875C35 11.3775 35.1317 11.0803 35.3661 10.8611C35.6005 10.6419 35.9185 10.5188 36.25 10.5188ZM27.5 9.93438C27.8708 9.93438 28.2334 10.0372 28.5417 10.2298C28.85 10.4225 29.0904 10.6963 29.2323 11.0166C29.3742 11.337 29.4113 11.6894 29.339 12.0295C29.2666 12.3696 29.088 12.682 28.8258 12.9271C28.5636 13.1723 28.2295 13.3393 27.8658 13.4069C27.5021 13.4746 27.1251 13.4399 26.7825 13.3072C26.4399 13.1745 26.147 12.9498 25.941 12.6615C25.735 12.3732 25.625 12.0342 25.625 11.6875C25.625 11.2225 25.8225 10.7766 26.1742 10.4479C26.5258 10.1191 27.0027 9.93438 27.5 9.93438ZM47.5 183.494C45.7694 183.494 44.0777 183.014 42.6388 182.115C41.1998 181.216 40.0783 179.938 39.4161 178.443C38.7538 176.948 38.5805 175.303 38.9181 173.716C39.2557 172.129 40.0891 170.672 41.3128 169.527C42.5365 168.383 44.0956 167.604 45.793 167.288C47.4903 166.973 49.2496 167.135 50.8485 167.754C52.4473 168.373 53.8139 169.422 54.7754 170.767C55.7368 172.113 56.25 173.694 56.25 175.312C56.25 177.482 55.3281 179.563 53.6872 181.098C52.0462 182.632 49.8206 183.494 47.5 183.494ZM90 163.625H5V23.375H90V163.625Z" fill="#1D1D1F"/>
</svg>
