<svg width="148" height="187" viewBox="0 0 148 187" fill="none" xmlns="http://www.w3.org/2000/svg">
<path d="M147.024 18.6139C147.11 16.0898 146.93 13.5636 146.488 11.0773C145.995 8.59781 144.83 6.30334 143.123 4.44632C141.41 2.62232 139.216 1.32666 136.797 0.711038C134.381 0.164797 131.906 -0.0683569 129.431 0.0172605C128.976 0.0151864 128.516 0.0141498 128.052 0.0141498H77.8181H76.48C75.5864 0.0141498 74.6448 0.0176496 73.8398 0.0378718C72.5111 0.0565741 71.1854 0.167673 69.872 0.370372C68.6263 0.566624 67.4095 0.916678 66.2492 1.41259C64.9628 1.97016 63.7752 2.73432 62.7328 3.67515C60.7349 5.50031 59.3334 7.89059 58.7123 10.5317C58.3313 12.1845 58.1259 13.8733 58.0996 15.5697C58.0775 16.2199 58.0609 16.8678 58.0578 17.5165C58.0505 18.5202 58.0505 19.5158 58.0505 20.5195V168.082C57.9642 170.606 58.1435 173.132 58.5855 175.618C59.0791 178.098 60.2436 180.393 61.951 182.25C62.1355 182.447 62.3425 182.608 62.5359 182.792C63.331 183.552 64.2205 184.205 65.1823 184.736C66.1603 185.276 67.1993 185.695 68.277 185.985C69.5591 186.31 70.8697 186.51 72.1903 186.58C73.3384 186.656 74.4924 186.674 75.6429 186.678C76.3601 186.682 77.0962 186.681 77.82 186.678H128.822C131.346 186.774 133.872 186.579 136.352 186.095C138.839 185.546 141.117 184.288 142.912 182.473C144.698 180.619 145.925 178.296 146.454 175.771C146.926 173.237 147.117 170.658 147.024 168.082V20.5195C147.024 19.8817 147.024 19.2397 147.024 18.6139ZM92.99 5.64954C92.9877 6.03695 92.8427 6.40975 92.583 6.696C92.3233 6.98226 91.9674 7.16168 91.5839 7.19965C91.2897 7.22104 90.9954 7.16005 90.7336 7.02343C90.4719 6.88682 90.2529 6.67993 90.1011 6.42576C89.9719 6.1871 89.9042 5.9197 89.9042 5.64798C89.9042 5.37626 89.9719 5.10887 90.1011 4.8702C90.253 4.61624 90.4721 4.40962 90.7338 4.27334C90.9956 4.13706 91.2899 4.07645 91.5839 4.09826C91.9676 4.13616 92.3238 4.31573 92.5835 4.60225C92.8432 4.88877 92.988 5.2619 92.99 5.64954ZM95.961 2.28915C95.9611 2.15218 96.0152 2.02084 96.1115 1.92394C96.2078 1.82705 96.3385 1.77252 96.4747 1.77232H108.407C108.543 1.77242 108.674 1.82692 108.77 1.92383C108.866 2.02074 108.921 2.15214 108.921 2.28915V2.37004C108.92 2.50698 108.866 2.63828 108.77 2.73511C108.674 2.83194 108.543 2.88638 108.407 2.88648H96.4759C96.4083 2.88659 96.3414 2.87331 96.279 2.8474C96.2165 2.8215 96.1598 2.78348 96.112 2.73552C96.0641 2.68756 96.0262 2.63059 96.0003 2.56788C95.9744 2.50517 95.961 2.43794 95.961 2.37004V2.28915ZM143.156 20.2018V78.2629V168.164C143.241 170.423 143.082 172.685 142.682 174.909C142.316 176.731 141.439 178.409 140.155 179.747C138.873 181.04 137.244 181.931 135.466 182.31C133.277 182.719 131.048 182.881 128.822 182.792H81.3971C79.8153 182.792 77.2134 182.794 75.6583 182.792C74.3725 182.786 73.2104 182.76 72.1164 182.675C71.1555 182.614 70.2021 182.464 69.2681 182.229C67.5507 181.797 65.9912 180.883 64.7722 179.593C63.5434 178.249 62.7106 176.588 62.3668 174.796C61.9873 172.58 61.8372 170.33 61.9189 168.082V20.5195C61.9189 19.5313 61.9127 18.5023 61.9398 17.5176C61.9436 16.8589 61.9537 16.2059 61.9784 15.5705C62.0005 14.1942 62.1638 12.8239 62.4659 11.4813C62.9017 9.59087 63.8973 7.87759 65.3211 6.56732C66.0526 5.90753 66.8861 5.37189 67.7888 4.98143C68.6588 4.61165 69.5709 4.35158 70.5044 4.20715C71.6413 4.03286 72.7889 3.93878 73.9388 3.92559C74.6491 3.90771 75.4734 3.90576 76.2676 3.90498H84.8942C85.128 3.89448 85.3622 3.90686 85.5936 3.94193C85.8217 3.97664 86.0341 4.07979 86.2029 4.23787C86.3743 4.39666 86.484 4.61155 86.5124 4.84415C86.5561 5.12415 86.5897 6.05321 86.6876 6.60348C86.7763 7.11946 86.9532 7.61612 87.2102 8.07154C87.6212 8.79324 88.2141 9.39324 88.9293 9.81104C89.4868 10.1292 90.1022 10.3313 90.739 10.4053C91.3817 10.469 92.0278 10.4895 92.6732 10.4667H112.408C113.053 10.4895 113.699 10.469 114.342 10.4053C114.979 10.3312 115.594 10.1291 116.151 9.81104C116.867 9.39325 117.46 8.79325 117.871 8.07154C118.128 7.6161 118.305 7.11944 118.393 6.60348C118.464 6.08008 118.504 5.55304 118.514 5.02498C118.511 4.87469 118.542 4.72568 118.605 4.58929C118.668 4.4529 118.761 4.33272 118.877 4.23787C119.044 4.0807 119.255 3.97761 119.481 3.94193C119.712 3.90719 119.946 3.89507 120.18 3.90576H128.658H129.415C131.561 3.82178 133.709 4.01125 135.807 4.46965C137.525 4.90118 139.084 5.81579 140.303 7.10632C141.532 8.44962 142.364 10.1101 142.708 11.9021C143.088 14.1201 143.238 16.3718 143.156 18.6209V20.2018ZM59.129 184.91C59.0775 184.855 59.0384 184.791 58.9878 184.736C58.4361 184.126 57.9297 183.476 57.4729 182.791H18.0692C17.6007 182.791 16.5841 182.791 16.1028 182.791C14.1742 182.868 12.2436 182.698 10.3575 182.286C8.84958 181.904 7.48143 181.098 6.414 179.961C5.32958 178.766 4.59604 177.292 4.29488 175.702C3.95357 173.689 3.81875 171.645 3.89256 169.604V34.3978C3.89256 33.963 3.89256 33.0339 3.89256 32.5883C3.80224 30.4374 3.96652 28.2834 4.38192 26.1716C4.76417 24.4981 5.64065 22.9799 6.89639 21.816C7.53638 21.2354 8.26625 20.7636 9.05729 20.4192C9.82537 20.0914 10.631 19.8609 11.4557 19.7332C12.4774 19.5756 13.5088 19.4908 14.5423 19.4792C15.2464 19.4613 16.0723 19.4586 16.8568 19.4586H17.4974H18.0742H25.6203C25.8334 19.4489 26.0469 19.46 26.2578 19.4917C26.4677 19.5184 26.663 19.6134 26.8142 19.762C26.9654 19.9107 27.0641 20.105 27.0954 20.3153C27.1317 20.5269 27.1485 20.7415 27.1456 20.9562C27.1459 21.4379 27.1827 21.919 27.2555 22.3951C27.3364 22.8664 27.4976 23.3202 27.7321 23.7364C28.1074 24.3952 28.6488 24.9429 29.3019 25.3242C29.8109 25.6145 30.3728 25.7988 30.9541 25.8663C31.5401 25.9247 32.1292 25.9437 32.7177 25.9231H52.4358C53.0185 25.9431 53.6018 25.9249 54.182 25.8687V20.5195C54.182 19.5266 54.1797 18.5128 54.1902 17.5169C54.1933 16.8803 54.2091 16.2335 54.2308 15.5724H18.0742L16.8568 15.5697C16.0398 15.5697 15.1787 15.5728 14.4421 15.5915C13.2288 15.6085 12.0182 15.7105 10.819 15.8968C9.68131 16.0769 8.5703 16.3984 7.51147 16.8538C6.33592 17.3661 5.25141 18.0678 4.30068 18.9313C2.47455 20.6104 1.19528 22.8048 0.63032 25.227C0.129129 27.6668 -0.0744318 30.1589 0.0241385 32.6481V34.3982V169.604C-0.0540543 171.921 0.109832 174.24 0.513107 176.523C0.962348 178.798 2.02491 180.904 3.58463 182.612C5.14577 184.285 7.14966 185.475 9.36057 186.042C11.5659 186.544 13.8263 186.759 16.0862 186.681C16.7411 186.683 17.4135 186.683 18.0742 186.681H61.0833C60.3866 186.143 59.7331 185.551 59.129 184.91ZM36.1594 17.5577C36.1594 17.4236 36.2124 17.295 36.3067 17.2002C36.4011 17.1054 36.529 17.0522 36.6623 17.0522H48.4943C48.5603 17.0522 48.6257 17.0652 48.6867 17.0906C48.7478 17.116 48.8032 17.1533 48.8499 17.2002C48.8966 17.2472 48.9336 17.3029 48.9589 17.3642C48.9842 17.4256 48.9972 17.4913 48.9972 17.5577V17.6355C48.9972 17.7019 48.9842 17.7676 48.9589 17.829C48.9336 17.8903 48.8966 17.946 48.8499 17.993C48.8032 18.0399 48.7478 18.0771 48.6867 18.1026C48.6257 18.128 48.5603 18.141 48.4943 18.141H36.6608C36.5274 18.141 36.3995 18.0878 36.3052 17.993C36.2109 17.8982 36.1579 17.7696 36.1579 17.6355L36.1594 17.5577ZM30.0818 20.7972C30.2375 20.5363 30.4622 20.324 30.7308 20.1838C30.9994 20.0436 31.3014 19.981 31.6032 20.003C31.9979 20.0398 32.3648 20.2234 32.6318 20.5178C32.8989 20.8123 33.0469 21.1965 33.0469 21.595C33.0469 21.9935 32.8989 22.3776 32.6318 22.6721C32.3648 22.9665 31.9979 23.1501 31.6032 23.1869C31.3011 23.2089 30.9989 23.1463 30.73 23.006C30.4612 22.8658 30.2362 22.6534 30.0802 22.3924C29.9483 22.1474 29.8793 21.8731 29.8796 21.5946C29.8799 21.316 29.9494 21.0419 30.0818 20.7972Z" fill="#1D1D1F"/>
</svg>
