<svg xmlns="http://www.w3.org/2000/svg" xmlns:xlink="http://www.w3.org/1999/xlink" version="1.1" width="1000" height="1000" viewBox="0 0 1000 1000" xml:space="preserve">
<desc>Created with Fabric.js 3.5.0</desc>
<defs>
</defs>
<rect x="0" y="0" width="100%" height="100%" fill="#000000"/>
<g transform="matrix(1.8182 0 0 1.8182 500.0045 500.0045)" id="321133">
<g style="" vector-effect="non-scaling-stroke">
		<g transform="matrix(1 0 0 1 -46.43 -143.86)" id="Layer_1">
<path style="stroke: rgb(0,0,0); stroke-width: 1; stroke-dasharray: none; stroke-linecap: butt; stroke-dashoffset: 0; stroke-linejoin: miter; stroke-miterlimit: 10; is-custom-font: none; font-file-url: none; fill: rgb(255,255,255); fill-rule: nonzero; opacity: 1;" transform=" translate(-203.57, -106.14)" d="M 203.57 106.14" stroke-linecap="round"/>
</g>
		<g transform="matrix(1 0 0 1 -89.38 -18.6)" id="Layer_1">
<polygon style="stroke: rgb(255,255,255); stroke-width: 1; stroke-dasharray: none; stroke-linecap: butt; stroke-dashoffset: 0; stroke-linejoin: miter; stroke-miterlimit: 10; is-custom-font: none; font-file-url: none; fill: rgb(255,255,255); fill-rule: nonzero; opacity: 1;" points="-148.45,181.82 -128.63,181.82 22.65,-139.75 64.71,-48.95 127.01,85.56 148.45,86.36 21.84,-181.82 "/>
</g>
		<g transform="matrix(1 0 0 1 -24.46 0.31)" id="Layer_1">
<polygon style="stroke: rgb(255,255,255); stroke-width: 1; stroke-dasharray: none; stroke-linecap: butt; stroke-dashoffset: 0; stroke-linejoin: miter; stroke-miterlimit: 10; is-custom-font: none; font-file-url: none; fill: rgb(255,255,255); fill-rule: nonzero; opacity: 1;" points="-62.09,67.86 -0.21,-67.86 10.5,-44.74 -35.93,52.49 55.32,52.04 62.09,66.65 "/>
</g>
		<g transform="matrix(1 0 0 1 -14.82 155.74)" id="Layer_1">
<polygon style="stroke: rgb(255,255,255); stroke-width: 1; stroke-dasharray: none; stroke-linecap: butt; stroke-dashoffset: 0; stroke-linejoin: miter; stroke-miterlimit: 10; is-custom-font: none; font-file-url: none; fill: rgb(255,255,255); fill-rule: nonzero; opacity: 1;" points="-116.49,7.48 -107.87,-7.48 110.29,-7.48 116.49,7.48 "/>
</g>
		<g transform="matrix(1 0 0 1 110.845 -28.405)" id="Layer_1">
<polygon style="stroke: rgb(255,255,255); stroke-width: 1; stroke-dasharray: none; stroke-linecap: butt; stroke-dashoffset: 0; stroke-linejoin: miter; stroke-miterlimit: 10; is-custom-font: none; font-file-url: none; fill: rgb(255,255,255); fill-rule: nonzero; opacity: 1;" points="-100.315,-191.625 -81.105,-191.625 100.315,191.625 78.875,191.625 "/>
</g>
</g>
</g>
</svg>