<svg width="50" height="50" viewBox="0 0 50 50" fill="none" xmlns="http://www.w3.org/2000/svg">
<path d="M25 0C11.1633 0 0 11.1633 0 25C0 38.8418 11.1633 50 25 50C38.8418 50 50 38.8367 50 25C50 11.1633 38.8418 0 25 0ZM40.5357 41.4286C40 33.0357 31.0714 30.8061 31.0714 30.8061C31.0714 30.8061 36.5204 27.1429 34.5561 19.7347C33.5714 15.8929 29.9133 13.0357 24.9133 13.0357C19.9133 13.0357 16.2551 15.8929 15.2704 19.7347C13.3061 27.1429 18.75 30.8061 18.75 30.8061C18.75 30.8061 9.82143 32.7704 9.28571 41.4286C5.08673 37.2296 2.41327 31.4286 2.41327 25C2.41327 12.5 12.5 2.41327 25 2.41327C37.5 2.41327 47.5918 12.5 47.5918 25C47.5918 31.4286 44.9082 37.2296 40.5357 41.4286Z" fill="white"/>
</svg>
